Jump_normalized_Motion_pl16
version=1
nRows=14
nColumns=43
inDegrees=yes
endheader
time		pelvis_tilt		pelvis_list		pelvis_rotation		pelvis_tx		pelvis_ty		pelvis_tz		hip_flexion_r		hip_adduction_r		hip_rotation_r		knee_angle_r		ankle_angle_r		subtalar_angle_r		mtp_angle_r		hip_flexion_l		hip_adduction_l		hip_rotation_l		knee_angle_l		ankle_angle_l		subtalar_angle_l		mtp_angle_l		lumbar_extension		lumbar_bending		lumbar_rotation		neck_flexion		neck_lateral_bending		neck_rotation		arm_flex_r		arm_add_r		arm_rot_r		elbow_flex_r		pro_sup_r		wrist_flex_r		wrist_dev_r		hand_finger_flex_r		arm_flex_l		arm_add_l		arm_rot_l		elbow_flex_l		pro_sup_l		wrist_flex_l		wrist_dev_l		hand_finger_flex_l		
0.260000		5.887817		-18.020355		89.879079		0.036782		1.843510		1.903904		79.735425		5.382419		-4.894993		-119.038638		25.742778		-4.524191		4.796271		82.422088		-8.088985		3.611978		-124.399170		22.011425		1.447855		13.162855		-54.863799		2.481805		5.052800		40.178682		-1.343994		1.907447		35.292729		-15.911689		-6.445492		58.498265		102.349505		-2.402919		-2.280063		29.623889		26.446457		-18.216161		-10.483653		66.062956		99.293739		-4.869787		-1.497129		34.674785		
0.263561		5.852199		-18.159830		89.926773		0.036572		1.843464		1.902262		79.712340		5.342420		-4.794303		-119.080180		25.853839		-4.408771		4.941334		82.387020		-8.077438		3.498481		-124.398190		22.016376		1.322708		13.194743		-54.671563		2.497573		5.072895		40.310466		-1.380015		1.756180		36.013589		-15.885071		-6.307653		58.967132		102.065725		-2.316888		-2.127617		29.780551		27.358794		-18.184345		-10.279576		66.583406		99.140872		-4.825750		-1.456350		34.866529		
0.267121		5.800927		-18.291074		89.972132		0.036363		1.843482		1.900559		79.672748		5.290189		-4.686263		-119.113546		25.954387		-4.270476		5.112697		82.332071		-8.062942		3.364889		-124.383684		22.003094		1.181884		13.232041		-54.468980		2.502930		5.091266		40.362380		-1.417259		1.597477		36.701653		-15.877782		-6.160304		59.490119		101.713003		-2.237808		-1.917299		29.953652		28.277573		-18.133953		-10.060426		67.118146		98.952228		-4.799543		-1.396818		35.085088		
0.270682		5.586404		-18.391539		89.935947		0.036025		1.843572		1.898809		79.613553		5.181693		-4.392142		-119.189578		26.004389		-3.975474		5.946862		82.194927		-8.005890		3.018630		-124.351419		21.835648		0.760722		13.429647		-54.267291		2.356905		5.153539		40.304696		-1.494671		1.276273		37.243400		-16.112580		-5.785439		60.322938		100.203370		-2.849245		-0.674352		30.415622		29.377525		-18.067200		-9.412369		67.562925		98.169512		-5.384929		-0.991262		35.927883		
0.274242		5.602553		-18.572789		89.994826		0.035831		1.843644		1.897029		79.606836		5.169700		-4.379304		-119.191323		26.047725		-4.033437		6.048042		82.209741		-8.039721		2.957245		-124.339681		21.813606		0.781621		13.457562		-53.989512		2.407380		5.184561		40.324160		-1.486422		1.191056		37.943232		-16.201113		-5.344835		60.868789		100.296029		-2.907864		-0.697807		30.487484		30.261628		-18.043984		-9.167025		68.139961		98.132865		-5.436117		-1.042428		36.022715		
0.277803		5.609015		-18.751165		90.045699		0.035696		1.843835		1.895226		79.576748		5.149440		-4.378406		-119.165552		26.076911		-4.068154		6.132794		82.205987		-8.072779		2.899262		-124.307818		21.785453		0.785702		13.479693		-53.701187		2.441484		5.223819		40.261740		-1.501684		1.120968		38.633275		-16.193203		-5.022701		61.418376		100.375766		-3.044492		-0.719448		30.535543		31.162532		-17.975893		-8.950916		68.721745		98.069787		-5.495642		-1.074488		36.091760		
0.281364		5.600073		-18.936616		90.104514		0.035522		1.844041		1.893396		79.550725		5.114224		-4.360316		-119.154665		26.121161		-4.133161		6.281296		82.205794		-8.086515		2.823134		-124.279853		21.719643		0.776548		13.516751		-53.404748		2.465714		5.277231		40.300226		-1.511896		0.988263		39.286335		-16.330853		-4.500736		62.112250		100.605759		-3.424223		-0.687128		30.634552		32.124449		-17.975139		-8.541243		69.318099		97.942336		-5.625665		-0.988695		36.198947		
0.284924		5.579813		-19.128565		90.154217		0.035427		1.844342		1.891548		79.521458		5.096405		-4.328288		-119.125765		26.153829		-4.226270		6.449784		82.192902		-8.112612		2.741834		-124.228675		21.663998		0.794738		13.559625		-53.103677		2.469382		5.314703		40.366948		-1.483567		0.898309		39.962480		-16.459719		-3.935851		62.820491		100.944201		-3.938574		-0.714272		30.848898		33.099522		-18.059298		-8.023816		69.960004		97.705407		-5.802639		-0.824864		36.287258		
0.288485		5.571313		-19.308720		90.176896		0.035382		1.844788		1.889665		79.469017		5.094675		-4.308753		-119.059607		26.145588		-4.269451		6.548976		82.145638		-8.153920		2.689049		-124.153164		21.655501		0.830053		13.585576		-52.786614		2.472785		5.319800		40.273973		-1.465865		0.888876		40.721131		-16.355247		-3.643297		63.376179		101.079740		-4.178520		-0.794696		31.057898		34.039831		-18.049693		-7.733014		70.576885		97.485381		-5.931136		-0.768432		36.306287		
0.292045		5.554444		-19.491908		90.199019		0.035336		1.845312		1.887723		79.416926		5.096740		-4.266151		-118.990647		26.133917		-4.326832		6.673276		82.082459		-8.188141		2.629910		-124.062134		21.647693		0.880965		13.617548		-52.467217		2.468682		5.316536		40.220275		-1.431820		0.883148		41.500334		-16.302965		-3.285546		63.945687		101.244313		-4.436227		-0.866235		31.349780		34.998510		-18.087871		-7.362358		71.218501		97.206163		-6.089934		-0.667375		36.320973		
0.295606		5.496794		-19.647835		90.192585		0.035182		1.846028		1.885708		79.333325		5.077988		-4.175375		-118.916911		26.089998		-4.382033		6.844745		81.952848		-8.193229		2.531291		-123.953232		21.647281		0.967398		13.657590		-52.189307		2.436426		5.279698		40.247884		-1.358987		0.908402		42.371864		-16.342651		-2.823277		64.489473		101.319322		-4.479303		-0.841432		31.855112		35.996029		-18.232699		-6.838615		71.875956		96.814048		-6.300896		-0.492239		36.289095		
0.299167		5.485950		-19.840337		90.209720		0.035130		1.846870		1.883627		79.243398		5.083235		-4.141227		-118.775500		26.078658		-4.384041		6.895196		81.838519		-8.216222		2.489790		-123.786965		21.643894		0.993796		13.667554		-51.853622		2.452255		5.274919		40.066915		-1.358259		0.922923		43.204200		-16.181660		-2.680774		64.994764		101.272328		-4.412294		-0.880698		31.997475		36.944842		-18.147121		-6.680851		72.509592		96.682362		-6.356616		-0.536946		36.265607		
0.302727		5.378327		-19.922192		90.195993		0.034761		1.847936		1.881440		79.056929		5.014050		-3.989918		-118.700291		26.011173		-4.401439		7.077764		81.562294		-8.172866		2.312290		-123.638380		21.608836		1.070387		13.698734		-51.662599		2.396043		5.181782		40.170501		-1.288608		0.945875		44.178777		-16.339662		-2.191373		65.542484		101.073976		-3.892083		-0.628515		32.524601		38.012596		-18.363829		-6.049310		73.171678		96.346177		-6.541687		-0.375289		36.170287		
0.306288		5.225801		-19.968344		90.146768		0.034458		1.849223		1.879142		78.777213		4.944751		-3.841271		-118.574945		25.972566		-4.367357		7.393336		81.194621		-8.142803		2.091631		-123.418418		21.599512		1.068847		13.743471		-51.494522		2.300567		5.083685		40.021467		-1.295714		0.917428		45.067461		-16.195519		-2.215485		66.121269		100.445769		-3.262582		-0.237190		33.036105		39.048204		-18.423256		-5.586168		73.848680		95.745069		-6.956091		-0.247090		35.980962		
